<svg id="Ebene_1" xmlns="http://www.w3.org/2000/svg" width="210" height="210" viewBox="0 0 210 210"><title>Blank globe, focus on Africa</title><path fill="#fff" stroke="#ccc" stroke-width=".75" d="M205.5 105.233c0 55.104-44.673 99.777-99.78 99.777S5.937 160.338 5.937 105.233c0-55.107 44.675-99.78 99.783-99.78s99.78 44.673 99.78 99.78z"/><path fill="#ccc" d="M98.17 199.174c-.504-.076-.937-.322-.968-.537-.027-.22-.063-.552-.085-.742-.054-.464-2.39-2.51-3.923-3.438-.774-.464-1.394-1.177-1.648-1.89-.23-.63-.537-1.147-.684-1.147-.144 0-.26-.215-.26-.48 0-.266-.318-.7-.704-.976-.383-.267-.603-.65-.48-.845.136-.22.02-.28-.3-.16-.377.15-.514-.02-.514-.61 0-.507-.574-1.403-1.536-2.414-1.587-1.647-2.268-3.672-1.55-4.585.183-.23.427-.824.55-1.324.12-.498.666-1.24 1.21-1.646 1.182-.87 1.216-1.193.293-2.756-.383-.654-.61-1.413-.5-1.7.107-.277-.422-1.78-1.18-3.33-1.02-2.103-1.847-3.256-3.24-4.53-1.683-1.533-3.37-3.853-3.37-4.636 0-.16.227-.3.5-.3.34 0 .503-.346.51-1.078.007-.596.23-1.372.5-1.73.87-1.15.356-3.513-.566-2.597-.227.23-.605.415-.847.415-.613 0-.537-.977.098-1.22.964-.37-.237-.768-2.358-.777-1.1-.003-2.166-.12-2.37-.252-.206-.14-.77-1.026-1.246-1.977-.762-1.51-1.04-1.762-2.13-1.967-1.674-.314-3.73-.31-6.74.013-2.34.254-2.605.212-4.163-.623-1.29-.688-2.307-.933-4.495-1.076-3.24-.22-3.51-.39-6.42-4.103-.934-1.19-2.382-2.79-3.214-3.564-.994-.924-1.39-1.493-1.145-1.666.597-.415.145-2.254-.82-3.338-.485-.547-1.073-1.274-1.303-1.616-.232-.35-.725-1.08-1.096-1.626-.5-.742-.61-1.255-.43-1.997.133-.55.255-1.744.263-2.66.012-1.062.21-1.84.547-2.163.7-.664 1.388-2.33.963-2.33-.178 0-.325-.448-.325-1 0-.547.13-.996.288-.996s.27.263.25.582c-.09 1.31.575.806.697-.53.09-.964.017-1.374-.217-1.225-.444.27-.45.344.146-2.485.405-1.932.764-2.68 1.917-4.017.777-.905 1.675-1.726 1.995-1.828.322-.103.58-.405.58-.68 0-.883 1.012-2.048 1.944-2.233.517-.104 1.115-.554 1.37-1.03.355-.66.628-.803 1.23-.654.48.125.785.052.785-.186 0-.21.186-.354.415-.314.23.036.643-.03.917-.146.272-.115.89-.35 1.366-.525.67-.245.916-.616 1.077-1.598.283-1.77 2.28-3.806 4.25-4.328 1.87-.493 3.264-2.22 3.034-3.762-.1-.69-.334-1-.757-1-.334 0-.698-.15-.81-.33-.116-.183-.497-.334-.855-.334-.766 0-.795-.27-.133-1.15.312-.414.42-1.022.297-1.67-.15-.814.016-1.29.824-2.306 1.057-1.328 1.687-3.044 1.692-4.595.002-.777.195-.956 1.367-1.273 1.133-.303 1.46-.278 1.938.154.318.287.8.52 1.068.52.27 0 .637.152.818.33.178.18 1.072.555 1.98.83 1.587.484 1.68.477 2.227-.18.314-.378.67-1.204.785-1.83.25-1.334-.083-3.47-.542-3.47-.173 0-.317-.208-.317-.466 0-.256-.226-.55-.5-.657-.29-.112-.5-.61-.5-1.2 0-.95.074-1.007 1.305-1.007.72 0 1.39.188 1.497.417.103.23.096.054-.014-.383-.16-.63-.09-.757.315-.6.284.11.577.02.658-.2.095-.274.35-.213.818.204.645.57.745.574 1.963.04l1.285-.567-1.167-.29c-.64-.16-2.288-.347-3.662-.42-1.375-.068-2.76-.144-3.08-.16-.902-.055-.685-.594.33-.82.506-.113 1.217-.438 1.585-.72.54-.42.577-.57.2-.804-.612-.376-.216-1.35.553-1.35.444 0 .603-.247.593-.913-.01-.803.103-.903.9-.818.812.083.912-.012.88-.833-.022-.568-.098-.7-.19-.35-.083.32-.38.58-.662.58-.314 0-.44-.188-.324-.493.16-.412.083-.426-.464-.084-.36.227-.654.723-.654 1.108 0 .384-.26.93-.583 1.21-.675.587-3.446 1.063-4.415.756-.99-.316-.873-1.75.18-2.232.505-.227.778-.57.673-.84-.26-.68.82-2.153 1.414-1.93.27.108.77-.053 1.103-.358.352-.317.94-.48 1.404-.393.534.103.924-.054 1.18-.46.237-.377.254-.61.046-.61-.59 0-.36-.663.25-.702.554-.04.554-.045 0-.19-.784-.204-.735-.57.203-1.583.805-.87 1.876-1.14 1.876-.473 0 .264.144.256.483-.03.265-.22.65-.3.853-.172.2.125.665-.04 1.022-.364.52-.47.734-.505 1.06-.176.326.327.182.615-.677 1.39-.935.84-.994.976-.417.976.884 0 .884 1.04 0 1.834-.77.698-.684 1.83.37 4.75.724 2.013.838 4.27.218 4.49-.23.082-.317.255-.198.385.37.4 2.125-.71 3.07-1.958.818-1.073 1.057-1.185 2.532-1.185 1.797 0 1.853-.072 2.17-2.628.25-1.982.527-2.38 2.024-2.893.995-.345 1.34-.353 1.54-.043.15.235.26-.05.26-.68.005-1.192-.47-1.38-1.513-.59-.356.27-1.096.494-1.648.5-1.485.014-1.937-.93-1.65-3.44.31-2.696.832-3.626 2.462-4.36.747-.336 1.355-.73 1.355-.87 0-.147.527-.455 1.172-.685.79-.285 1.56-.985 2.355-2.143.653-.945 1.547-1.912 1.99-2.146.443-.24.746-.493.67-.57-.076-.077-.464.04-.862.25s-.804.31-.902.21c-.264-.266 1.9-2.17 3.293-2.893.674-.35 1.316-.786 1.433-.972.114-.187.65-.34 1.19-.34.535 0 .977-.12.977-.265 0-.394 1.987-.99 3.38-1.02.85-.016 1.477.223 2.097.8.487.45 1.103.817 1.366.817.266 0 .483.15.483.334s.294.333.658.333c1.18 0 4.928 1.732 5.314 2.457.218.4.74.724 1.222.753.776.046.798.005.32-.525-.286-.318-.52-.826-.52-1.13 0-.31-.155-.56-.336-.56-.183 0-.334-.24-.334-.535 0-.413.25-.503 1.084-.38.593.08 1.343.26 1.66.4.427.185.89-.104 1.797-1.107.79-.88 1.614-1.433 2.337-1.57 2.136-.398.886-1.802-1.383-1.548-.89.1-1.753-.032-2.42-.378-.876-.452-1.066-.776-1.234-2.117-.11-.87-.286-1.956-.39-2.412-.404-1.83-.22-2.76.673-3.41.48-.352.88-.862.88-1.135 0-.295.234-.45.58-.378.455.09.553.37.453 1.273-.073.635-.146 2.253-.16 3.6-.025 2.16.06 2.523.724 3.06.99.8 3.892 1.345 5.562 1.042l1.332-.244-.92-.795c-.502-.44-.912-1.1-.912-1.464s-.21-.898-.464-1.19c-.256-.287-.57-1.032-.703-1.652-.228-1.082-.204-1.116.61-.913.736.184.858.096.95-.697l.105-.913.747.808c.608.652.75.7.75.244 0-.308-.164-.562-.37-.562-.216 0-.307-.347-.21-.833.084-.457.04-.833-.102-.833-.144 0-.354-.635-.47-1.414-.43-2.817-.558-3.176-1.197-3.345-.913-.24-.83-1.227.103-1.24.728-.013.73-.023.08-.387-.363-.207-.776-.54-.91-.74-.166-.25-.244-.253-.25-.006-.004.195-.964.547-2.133.78-2.244.446-2.964.292-3.89-.838-.437-.527-.383-.557.664-.352.79.16 1.383.066 1.947-.303.483-.317 1.128-.45 1.61-.33.477.12.802.054.802-.156 0-.237.5-.286 1.45-.144 1.153.17 1.49.11 1.654-.31.25-.66 1.242-.67 3.3-.045 1.536.47 1.583.46 1.583-.217 0-.383.26-.89.583-1.138.53-.403.502-.444-.314-.454-1.064-.012-1.304-.305-1.047-1.287.15-.584.442-.73 1.562-.748.757-.017 1.19-.103.962-.195-.23-.094-.417-.375-.417-.63 0-1.202-3.418-2.154-4.578-1.278-1.18.893-3.414.33-3.414-.86 0-.35-.148-.728-.332-.84-.598-.37-.352-1.165.366-1.165.42 0 .768.266.873.664.095.363.332.666.524.666.193 0 .623.248.952.546.56.505.62.505.81 0 .114-.298.417-.547.674-.547.552 0 .612-.533.103-.85-.2-.123-.288-.5-.2-.838.114-.44-.166-.808-.972-1.284-1.138-.67-1.487-1.34-.716-1.37.68-.027-2.474-1.545-3.743-1.81-.643-.13-2.815-1.034-4.83-2.006-2.016-.972-4-1.865-4.413-1.987-.843-.246-1.016-.84-.252-.84.274 0 .502-.15.502-.33 0-.184.225-.333.498-.333.275 0 .498.15.498.333 0 .18.413.334.92.334.5.002 1.363.24 1.913.53 1.343.706 4.494 1.042 4.494.48 0-.262.22-.333.584-.19.32.12 2.307.587 4.41 1.04 2.107.446 4.13.954 4.498 1.124 1.638.77 3.296 1.34 3.887 1.34.355 0 1.087.23 1.624.51.883.456.98.456.98 0 0-.28.154-.51.337-.51.18 0 .332.228.332.5s.26.5.585.5c.325 0 1.41.312 2.415.695 1.002.38 2.357.806 3.01.942 1.332.273 4.64 1.982 4.64 2.4 0 .378-3.793-.464-6.823-1.516-.366-.13-.104.11.58.534s1.246.96 1.246 1.19c.002.226.158.414.344.414s.977.58 1.748 1.29c.773.714 2.98 2.23 4.904 3.373 1.922 1.144 3.963 2.523 4.54 3.065.66.623 1.13.852 1.27.625.32-.525-.09-1.03-.66-.81-.464.175-.54.053-.62-.968-.02-.23-.264-.59-.534-.803-1-.78-.022-.796 2.212-.05 2.325.782 3.014 1.25 2.4 1.627-.202.128-.114.3.216.43.308.116.7.124.874.016.176-.11.524-.027.78.183.257.214.926.397 1.49.412.744.023 1 .175.938.563-.054.348.163.536.637.543.864.012 4.106 2.65 4.106 3.337 0 .676-.46.593-1.196-.217-.347-.383-.93-.84-1.3-1.016-.787-.377 1.15 1.415 4.064 3.75 1.192.958 2.494 2.39 3.073 3.39 1.043 1.78 5.054 6.08 7.046 7.55l1.126.832-1.25-1.71c-1.3-1.78-1.447-2.12-.937-2.12.44 0 6.164 7.623 5.91 7.87-.117.117-.44.02-.718-.21-.71-.59-.63-.25.16.66.654.76.854 1.33.462 1.33-.113 0-.976-.823-1.92-1.83-.945-1.002-1.855-1.83-2.02-1.83-.166 0-.598-.26-.96-.58-.646-.573-.646-.57-.1.5.36.7.42 1.08.176 1.08-.208 0-.29.235-.18.516.13.336.064.436-.18.28-.767-.47.09.515 1.02 1.174l.94.674-.114-.99c-.184-1.587.45-1.147 1.572 1.094 1.338 2.67 1.657 3.07 1.99 2.532.178-.286.754.134 1.862 1.357 1.807 1.988 2.676 3.28 4.165 6.178.568 1.096 1.345 2.322 1.73 2.717 1.174 1.194 1.558 1.738 2.058 2.94.635 1.51.625 2.29-.03 2.04-.39-.15-.438-.063-.196.38.44.83 1.707 7 1.707 8.316 0 .614.324 1.817.722 2.677.81 1.752 1.243 5.053.664 5.053-.197 0-.527-.635-.728-1.414-.598-2.315-.713-2.638-.874-2.472-.085.085.062 1.318.335 2.747.45 2.373.61 2.71 1.952 3.95 1.88 1.734 2.45 3.763 2.75 9.754.19 3.87.155 4.408-.307 4.408-.286 0-.523-.225-.523-.498 0-.276-.224-.5-.494-.5-.273 0-.498-.225-.498-.496 0-.748-.59-.604-.845.202-.273.862.122 4.29.493 4.29.15 0 .368.64.485 1.418.155 1.003.426 1.52.924 1.748 1.478.68 2.24 6.807 1.473 11.8-.27 1.733-.65 3.205-.845 3.273-.195.062-.356.332-.356.586 0 .262-.15.474-.336.474-.183 0-.33-.226-.33-.502 0-.63-1.376-3.618-1.735-3.77-.438-.183-.3-.786.27-1.203.474-.347.437-.457-.335-.96-1.103-.725-1.12-1.865-.05-2.87.693-.65.91-.704 1.343-.348.285.237.61.337.728.22.338-.34-.927-4.54-1.366-4.54-.23 0-.647-1.106-.977-2.58-.994-4.454-1.277-5.52-1.992-7.57l-.702-1.996-.342 1.806c-.33 1.716-1.022 2.59-1.3 1.636-.07-.243-.304-1.08-.514-1.857-.212-.78-.51-1.414-.66-1.414-.157 0-.854-.525-1.554-1.165-.698-.646-1.355-1.166-1.455-1.16-.352.01-2.35 4.728-2.35 5.543 0 .447-.21 1.514-.463 2.375-.552 1.863-1.263 5.906-1.23 6.997.014.427-.336 1.525-.775 2.445-.74 1.547-.77 1.757-.326 2.807.26.627.49 1.846.507 2.712.04 1.88.513 3.635 1.076 3.983.832.513 1.872 2.383 1.872 3.367 0 1.265-.594 2.61-1.268 2.866-.68.26-1.006-.325-1.27-2.26-.24-1.764-.665-1.703-1.275.187-.27.825-.54 1.084-1.156 1.084-.636 0-1-.376-1.75-1.83-.52-1.002-1.093-1.88-1.28-1.94-.184-.06-.7-.883-1.15-1.83-.45-.942-1.182-2.102-1.62-2.573-.44-.47-.9-1.182-1.03-1.58-.128-.397-.384-.725-.575-.725-.19 0-.267-.204-.17-.46s-.183-.992-.63-1.644c-.443-.652-.803-1.336-.803-1.52 0-.185-.544-.263-1.26-.178-.844.103-1.68-.065-2.562-.518-.722-.368-1.508-.67-1.742-.67s-.43-.214-.43-.473c0-.26-.46-.574-1.02-.696-.563-.125-1.102-.44-1.202-.7-.102-.262-.482-.64-.85-.833-.523-.28-.86-.223-1.542.275-.48.347-1.402.845-2.04 1.1-.642.26-1.457.736-1.816 1.07-.36.33-.808.543-.998.475-.193-.067-1.023.074-1.844.32-1.865.563-3.737.58-4.263.057-.586-.583-.53.518.09 1.707.56 1.09 1.25 1.433 2.31 1.167.46-.115 1.23.097 2.003.554 1.17.685 1.24.816 1.042 1.933-.114.66-.293 1.758-.397 2.446-.116.756-.372 1.246-.655 1.246-.313 0-.467.404-.467 1.252 0 .89-.188 1.37-.664 1.667-.367.227-.67.727-.67 1.105 0 .42-.27.767-.68.874-.414.106-.758.546-.87 1.104-.115.58-.457.997-.896 1.112-1.11.283-3.155 2.13-3.272 2.956-.065.462-.737 1.155-1.77 1.83-.916.602-2.02 1.42-2.45 1.82-.997.92-4.083 2.915-4.513 2.915-.18 0-.733.388-1.23.864-.55.53-1.325.884-1.99.915-.976.047-1.166-.103-1.843-1.445-.942-1.876-1.184-2.576-1.3-3.797-.062-.676-.602-1.435-1.77-2.497-.922-.842-1.762-1.836-1.87-2.22-.104-.38-.678-.9-1.27-1.164-.837-.37-1.18-.81-1.535-1.97-.767-2.514-1.44-3.668-2.275-3.876-.432-.112-1.01-.63-1.284-1.16-.276-.526-.626-.96-.784-.96-.157 0-.38-.336-.49-.746-.358-1.28-2.32-3.306-2.966-3.06-.312.12-.567.445-.567.724 0 .64 1.726 3.672 2.656 4.668.387.412.62.886.52 1.052-.245.396.14 1.357.544 1.357.935 0 2.136 2.03 2.456 4.16.176 1.186.432 1.625 1.19 2.074.533.314 1.295 1.25 1.688 2.077.397.825.883 1.616 1.08 1.748.24.166.225.247-.054.25-.223.002-.318.23-.213.505.255.656.787.64.787-.024 0-.35.244-.49.747-.416.494.068.75.334.75.773 0 .41.537 1.023 1.41 1.61 2.11 1.405 3.28 2.61 3.534 3.622.364 1.474 1.32 1.75 3.147.922.862-.39 1.79-.85 2.063-1.02.273-.17.725-.402.996-.512 2.164-.862 4.21-1.937 4.43-2.327.146-.255.56-.465.916-.465.484 0 .648.23.648.93 0 .513.186 1.123.415 1.353.333.338.304.484-.155.743-.314.175-.49.526-.392.78.096.252-.153 1.097-.554 1.883-.4.78-1.09 2.38-1.527 3.555-1.255 3.333-2.866 5.535-7.233 9.88-6.035 6.015-9.212 9.83-8.184 9.83.52 0 .353 1.274-.183 1.39-.435.095-.44.22-.03 1.008.536 1.025.514 1.64-.084 2.363-.563.675-.165 2.125.636 2.33.57.15.632.47.585 3.11l-.054 2.944-1.37 1.33c-.78.757-2.12 1.597-3.09 1.943-.95.332-1.908.83-2.136 1.102-.23.272-.99.79-1.7 1.15-1.416.73-1.85 1.41-1.302 2.066.423.514.135 2.745-.41 3.177-.205.16-1.14.54-2.075.844-1.43.47-1.794.762-2.275 1.82-.57 1.27-.68 1.354-5.285 3.785-2.82 1.49-4.676 1.85-10.38 2.014-2.933.082-5.743.085-6.246.002zm26.117-22.698c-.276-.698-.66 1.204-.43 2.134.13.513.22.41.402-.47.13-.624.14-1.373.025-1.664zm-7.054-4.65c0-.16-.31-.375-.686-.473-.562-.146-.613-.093-.29.293.44.53.976.63.976.18zm4.8-7.69c.682 0 1.626-1.254 1.396-1.854-.16-.41-.44-.485-1.12-.317-.504.122-.968.364-1.024.532-.063.17-.308.308-.55.308-.236 0-.495.447-.573.99-.12.792-.018.997.544 1.078.378.054.736-.088.795-.317.058-.23.3-.42.528-.42zm80.752-44.38c-.317-.292-.364-.238-.195.233.117.33.234.86.26 1.16.028.307.113.2.194-.23.083-.433-.037-.957-.26-1.165zm-.315-1.044c0-.637-.207-.637-.45 0-.108.276-.053.5.128.5.178 0 .322-.224.322-.5zm-51.936-2.45c.005-.47.052-.477.317-.05.42.66.738.306 2-2.24.566-1.148 1.177-2.08 1.353-2.08s.32-.187.314-.416c-.007-.23-.388.015-.854.542-1.062 1.204-3.18 1.54-4.72.745-.568-.293-1.264-.444-1.545-.337-.498.188-2.86-1.938-2.86-2.576 0-.158-.16-.288-.355-.288s-.26-.148-.146-.332c.112-.183.046-.332-.15-.332-.19 0-.355.335-.357.747-.006.605-.067.654-.328.25-.278-.43-.325-.426-.33.056-.002.308-.19.64-.42.74-.285.12-.18.354.335.73.41.305.747.756.747 1 0 .254.21.37.476.267.28-.11.713.195 1.077.76.332.517.827 1.14 1.105 1.384.276.24.342.36.145.26-.198-.094-.364.02-.364.258 0 .234.216.427.473.427.317 0 .422-.26.324-.783-.13-.67-.05-.75.555-.567.9.273.842.205 1.188 1.4.203.714.17 1.075-.095 1.19-.273.112-.252.254.083.485.606.412 2.028-.452 2.038-1.236zm-50.947-5.037c.146-1.304.313-1.57 1.33-2.078 1.512-.752 2.84-.74 3.617.04.342.34 1.2.73 1.917.86.71.135 1.445.362 1.63.506.182.146.855.347 1.5.452.64.103 1.914.327 2.827.5 1.424.264 1.8.22 2.557-.32.928-.66 2.593-.82 4.62-.45 1.532.28 1.737.01 2.616-3.523.865-3.48.653-5.398-.62-5.58-.455-.062-.904.1-1.07.392-.43.764-2.21 1.047-2.884.46-.884-.777-2.056-1.04-2.056-.462 0 .957-1.75 1.187-2.6.34-.512-.514-.565-.5-.733.224-.184.79-.996 1.345-.996.686 0-.2-.31-.674-.69-1.052-.376-.378-.6-.913-.5-1.19.144-.368.026-.44-.472-.28-.474.15-.662.056-.662-.332 0-.295.15-.45.332-.337.18.115.332.05.332-.143s-.23-.354-.516-.354c-.4 0-.496-.333-.438-1.49.044-.82-.024-1.595-.15-1.72-.13-.13-.232-.054-.232.16s-.225.385-.496.385c-.273 0-.498-.222-.498-.498 0-.27.148-.5.33-.5.185 0 .333-.25.333-.552 0-.44-.127-.398-.654.208-.37.415-1.128.852-1.7.97l-1.038.21.864.93c.488.528 1.03.83 1.248.697.21-.132.295-.095.188.076s.41.965 1.147 1.766c1.15 1.243 1.265 1.494.8 1.753-.297.162-.453.44-.35.61.11.17.056.314-.12.314s-.405-.222-.51-.493c-.105-.28-.41-.407-.7-.294-.362.14-.512-.012-.512-.515 0-.853-.95-1.31-1.36-.656-.16.256-.297.876-.3 1.38 0 .502-.156.912-.34.912-.18 0-.33-.117-.33-.26 0-.143-.45-.43-.997-.636-.673-.252-1-.603-1-1.07 0-.383-.215-.696-.48-.696-.692 0-1.012-.69-.48-1.03.336-.208.35-.29.046-.293-.23 0-.416-.296-.416-.65 0-.356-.154-.74-.34-.854-.63-.39-1.305-2.512-1.11-3.49.156-.766.007-1.137-.71-1.8-.493-.46-1.41-1.004-2.034-1.212-.623-.203-1.133-.532-1.133-.725 0-.19-.337-.677-.747-1.083-1.238-1.2-1.92-2.153-1.92-2.678 0-.758-.65-.587-.976.255-.222.58-.107.94.513 1.6.437.468.796 1.085.796 1.37 0 .802 1.304 2.272 2.024 2.272.352 0 .64.198.64.435 0 .243.68.91 1.5 1.495 1.52 1.072 1.734 1.51 1.175 2.395-.265.42-.42.377-1.014-.26-.387-.413-.855-.657-1.043-.54-.232.142-.225.327.02.57.198.2.364.62.364.93 0 .785-1.684 2.63-2.404 2.63-.437 0-.59.262-.59 1 0 1.106-.628 1.32-1.45.498-.277-.276-.602-.498-.724-.498-.51 0-2.157-1.41-2.157-1.848 0-.59 1.597-1.016 2.06-.552.418.415 2.662.12 3.02-.398.404-.58-.043-1.855-.92-2.64-1.803-1.608-2.56-2.218-2.77-2.226-.125-.005-.664-.603-1.2-1.33-.538-.73-1.175-1.324-1.415-1.324s-.437-.15-.437-.334.16-.332.36-.332c.483 0 .017-1.396-.625-1.865-.383-.276-.762-.242-1.533.14-1.963.975-2.188 1.063-2.637 1.063-.25 0-.93-.24-1.516-.53-1.3-.65-2.034-.417-2.034.647 0 .958-.4 1.312-2.163 1.92-1.755.603-3.564 2.224-3.323 2.974.2.625-1.69 2.77-2.172 2.473-.155-.095-.504.054-.782.332-.574.572-1.477.64-2.66.186-1.098-.417-2.22-.08-2.22.667 0 .74.32.96 1.552 1.052.52.04 1.13.25 1.357.47.273.268.713.304 1.33.114 3.64-1.125 4.452-1.162 10.743-.45 1.003.116 2.625.194 3.594.174 1.233-.024 1.816.107 1.94.435.1.26.394.39.655.29.314-.123.47.05.47.53 0 .39-.22.792-.486.893-.38.15-.403.34-.113.906.98 1.906.993 1.97.546 2.255-.247.156-.69.283-.99.288-.3 0-.638.24-.75.522-.113.298-.057.43.136.308.18-.112.834.332 1.45.984.62.656 1.442 1.187 1.845 1.187 1.328 0 3.69 1.29 3.69 2.014 0 .42.34.793.914 1.015.504.193 1.59.698 2.414 1.12 2.074 1.074 2.45.962 2.65-.82zm6.556-6.23c-.528-.08-.877-.314-.804-.533.146-.45.195-.452 2.32-.09 2.936.507 1.53 1.084-1.52.622zm11.754-.113c0-.48.872-1.326 1.116-1.082.107.107.573-.054 1.04-.36.866-.568 1.152-.312.44.397-.22.22-.265.398-.102.398.164 0 .01.222-.346.49-.755.572-2.145.672-2.145.157zm-7.778-.813c.246-.64.454-.64.454 0 0 .273-.146.5-.322.5-.18 0-.24-.225-.135-.5zM92.26 102.9c0-.425.235-.425.5 0 .11.186.044.332-.15.332-.19 0-.35-.144-.35-.332zm-7.03-6.213c-.025-.154-.01-.42.026-.605s.066-.95.066-1.71c0-1.066.122-1.36.55-1.327.43.032.524-.22.446-1.186-.077-.957.05-1.3.592-1.592.6-.325.684-.276.664.39-.012.42-.142 1.063-.286 1.424-.148.366-.14 1 .01 1.406.21.562-.11 2.49-.495 2.964-.197.24-1.547.44-1.576.234zm-7.444-2.085c-.293-.474.08-1.016.698-1.016.288 0 .46.23.393.553-.128.67-.792.948-1.092.462zm1.82-.664c0-.192.152-.35.335-.35.426 0 .426.233 0 .497-.184.113-.333.047-.333-.146zm27.674 6.54c-.272-.27-.367-.233-.367.14 0 .664.446 1.11.61.613.07-.21-.04-.55-.242-.752zm37.028-4.647c.487-.36.512-.564.155-1.5-.227-.592-.527-1.078-.67-1.078-.146 0-.263-.19-.263-.422 0-.234-.3-.98-.666-1.663s-.667-1.446-.667-1.702c0-.25-.228-.645-.5-.874-.274-.227-.5-.77-.5-1.204 0-.575-.185-.79-.68-.79-.372 0-1.056-.376-1.51-.833-.46-.46-.97-.833-1.128-.833-.16 0-.57-.347-.9-.77-.817-1.03-1.63-1.298-2.13-.695-.304.36-.316.68-.055 1.225.194.403.443 1.108.548 1.567.103.457.3.986.442 1.172.522.706 3.853 3.154 4.29 3.154.25 0 .456.224.456.497s-.23.5-.517.5c-.418 0-.493.364-.415 1.912.09 1.757.167 1.925.932 2.025.46.06.977.25 1.147.415.46.446 1.963.382 2.625-.106zm-32.072-.913c0-.18-.236-.332-.518-.332-.285 0-.43.15-.314.334.266.43.832.43.832 0zm4.253-2.125c1.33-.85 4.403-1.438 4.403-.842 0 .19.156.25.347.132s.57-.034.834.188c.273.225 1.45.4 2.668.4 1.807 0 2.317-.127 2.98-.752 1-.933.704-1.636-1.076-2.57-.693-.365-2.082-1.097-3.09-1.637-1.964-1.044-2.657-1.056-4.05-.07-1.078.767-1.942.808-1.942.098 0-.292-.31-.612-.693-.712-.472-.125-.64-.374-.53-.8.117-.438-.015-.62-.44-.62-.337 0-.686-.19-.78-.416-.223-.542-1.53 1.02-1.54 1.833-.01.322-.31.842-.68 1.155-.366.317-.664.98-.664 1.494 0 .51-.137.926-.296.926-.56 0-.68 1.482-.186 2.24.703 1.064 3.037 1.045 4.736-.042zm5.84-7.648c.1-.254.02-.615-.17-.806-.446-.445-1.93.185-1.93.82 0 .598 1.87.586 2.1-.012zm-24.26-14.03c.785-.598 1.906-.63 2.46-.076.286.29.486.306.65.06.13-.193.48-.442.783-.555.35-.13.608-.72.718-1.638.096-.79.44-2.22.768-3.176.497-1.453.76-1.775 1.613-1.992.896-.227.78-.278-.98-.427-1.164-.097-2.052-.033-2.133.16-.235.56-.865 1.074-1.61 1.31-.75.236-1.274 1.28-.925 1.847.23.364-.388 1.704-.96 2.083-.2.135-.7.245-1.112.25-.774.004-1.003.473-.415.836.5.31.396.83-.168.83-.273 0-.498-.15-.498-.332s-.376-.332-.835-.332-.833.15-.833.332.225.332.498.332c.277 0 .504.23.504.5-.004.65 1.608.644 2.474-.01zm2.184-4.028c0-.39.227-.897.505-1.128.785-.66.86-.237.145.852-.575.873-.648.905-.65.273zm-6.015.895c.39-.247.402-.447.07-1.077-.24-.465-.33-.52-.225-.15.112.374-.05.8-.403 1.072-.656.494-.192.628.558.154zm11.886-1.19c.288-.75-.518-1.6-1.074-1.137-.35.285-.358.497-.045 1 .48.77.86.816 1.12.137zm13.105-2.472c0-.452-.587-.747-.797-.405-.2.32.088.72.52.72.154 0 .278-.14.278-.316zm-9.867-1.518c.244-.637.073-.637-.454 0-.24.288-.27.498-.076.498.186.002.422-.222.53-.498zm-6.36-1.624c.276-.404.193-3.864-.093-3.864-.1 0-.637.42-1.196.93-1.318 1.204-1.714 2.634-.89 3.252.627.47 1.752.31 2.18-.318zm10.235.306c0-.425-.94-1.18-1.48-1.18-.34 0-.197.86.213 1.266.553.554 1.266.503 1.266-.086zm-8.136-5.373c1.262-.964 1.497-1.792.5-1.792-.652 0-1.69.816-1.69 1.33 0 .154-.09.52-.2.806-.287.75.077.66 1.39-.342zm10.3-.796c-.112-.182-.46-.323-.77-.31-.46.02-.44.075.104.31.89.385.9.385.666 0zm1.663-1.796c0-.617-.193-.695-1.685-.695-1.51 0-1.673.068-1.558.664.104.546.407.673 1.685.7 1.372.027 1.557-.05 1.557-.67zm65.24-6.15c.1-.16-.03-.47-.286-.68-.385-.32-.44-.266-.29.29.193.755.303.826.574.39zm-53.377-9.78c-.327-.326-.368-.285-.186.187.125.33.31.513.413.41.105-.1 0-.37-.227-.596zm38.916-9.354c0-.067-.26-.33-.58-.582-.528-.413-.54-.4-.125.127.43.55.704.73.704.455zM143.87 14.57c0-.252-4.12-1.493-4.303-1.295-.202.22-.093.27 2.305 1.118 1.33.472 1.997.53 1.997.176zm-6.764 174.264c-.073-.132-.153-.85-.176-1.597-.036-1.108.145-1.533.97-2.324.88-.84.983-1.123.803-2.188-.24-1.398.542-3.283 1.353-3.283.926 0 3.5-1.414 4.412-2.417 3.67-4.067 3.696-4.092 4.182-3.57.65.687.928 3.2.403 3.64-.228.187-.513.243-.633.126-.122-.12-.22.184-.22.67 0 .49-.15.89-.334.89-.184 0-.332.147-.332.328 0 .386-2.227 3.984-4.163 6.73-1.01 1.44-1.684 2.03-2.805 2.456-1.69.65-3.26.894-3.457.542zm17.752-8.374c0-.195.148-.354.332-.354.427 0 .427.236 0 .498-.183.113-.332.05-.332-.144zm-78.914-20.63c0-.195.154-.354.334-.354.43 0 .43.236 0 .498-.182.115-.334.05-.334-.144zm-55.837-2.934c-3.7-5.778-8.298-16.208-10.532-23.892C6.02 120.758 4.687 106.77 5.99 95.316c.54-4.75 1.132-5.044 1.04-.515-.163 8.38-.102 11.42.245 11.838.203.242.542 1.487.754 2.764.21 1.28.52 2.58.683 2.9.164.316.305 1.293.308 2.162.006.875.213 2.483.465 3.585.254 1.1.554 2.743.67 3.66.372 2.935 3.106 9.57 4.874 11.84.51.665 1.62 2.65 2.46 4.415.846 1.765 1.664 3.21 1.825 3.21.35 0 .608.625 1.22 2.93.68 2.542.592 3.28-.54 4.69l-1.014 1.26.87 2.632c.964 2.93 1.804 6.128 1.61 6.128-.07-.002-.68-.862-1.354-1.916zm134.416-21.045c.657-.422 1.426-.422 1.167 0-.112.184-.534.335-.935.33-.593-.002-.637-.064-.232-.327zm-19.31-2.19c0-.586.717-.483.922.135.073.217-.104.396-.396.396-.29 0-.53-.243-.53-.53zm-101.07-12.14c-.12-.194-.14-.434-.04-.53.236-.24.885.18.885.57.002.427-.574.4-.845-.04zm1.18-1.31c0-.43.237-.43.5 0 .11.18.05.334-.15.334-.19 0-.35-.15-.35-.334zm-1.75-2.15c-.667-.916-.72-1.178-.25-1.178.18 0 .333.176.333.39s.25.667.554 1c.304.336.416.603.25.6-.166-.01-.564-.37-.884-.81zm163.48-10.033c-.133-.132-.233-.628-.224-1.097l.02-.863.32.8c.35.87.276 1.554-.12 1.158zm-147.883-1.75c-.145-.23-.17-.51-.06-.62.298-.297.623.143.46.623-.112.337-.19.337-.4-.002zm2.307-.577c.48-.474.945-.786 1.04-.696.26.26-.964 1.564-1.467 1.564-.255-.002-.076-.363.427-.868zm-3.5-.8c0-.18.233-.33.52-.33s.426.15.312.33c-.27.436-.836.436-.836 0zm2.33-7.65c0-.425.237-.425.5 0 .112.183.046.332-.146.332s-.35-.15-.35-.332zm-4.995-12.646c0-.427.237-.427.5 0 .112.18.05.334-.146.334-.198 0-.354-.15-.354-.334zm-1.843-2.68c-.306-.492-.064-.67.47-.336.286.173.32.347.096.483-.188.12-.445.055-.57-.143zm-33.067-2.98c0-.457.076-.645.168-.415.09.226.09.6 0 .83-.092.23-.167.044-.167-.418zm.207-3.03c-.246-.644.418-3.622.81-3.622.273 0 .1 1.465-.394 3.315-.16.61-.268.688-.415.308zm3.737-11.943c0-.18.15-.33.332-.33s.33.15.33.33c0 .186-.15.337-.33.337s-.334-.15-.334-.334zm.996-1.84c0-.415 1.062-2.197 1.213-2.043.18.178-.79 2.227-1.055 2.227-.083-.003-.156-.084-.156-.184zm68.935-2.21c-.006-.313.15-.664.348-.784.583-.364.67.02.15.703-.428.564-.49.57-.5.08zm-67.6-.564c0-.183.15-.425.333-.537.18-.116.334-.06.334.124s-.15.427-.332.54c-.18.112-.333.056-.333-.128zm64.736-3.366c0-.367.198-.67.44-.67.336 0 .358.16.082.67-.447.83-.522.83-.522 0zM38.44 53.91c.04-.23.18-.604.325-.834.166-.266.07-.417-.26-.417-.285 0-.52-.22-.52-.49 0-.315.194-.413.55-.273.554.212.537-.21-.095-2.34-.127-.42.032-.658.515-.783.383-.1.696-.283.696-.408 0-.122.27-.244.607-.266 1.013-.077 3.398-1.232 3.28-1.59-.06-.184-.453-.357-.87-.377-.887-.046-1.41-.725-1.166-1.51.096-.304.018-.653-.172-.77-.194-.12-.348.06-.348.408 0 .344-.22.91-.49 1.27-.763 1.01-.64-.135.157-1.444.916-1.497.84-1.95-.374-2.195-1.636-.327-1.72-.26-.742.58.898.77.9.81.346 1.666-.315.48-.796.874-1.064.874-.27 0-.492.132-.492.293s-.304.374-.678.47c-.37.1-.65.304-.618.458.144.74-.505 2.44-.928 2.44-.264 0-.398.135-.3.29.098.16.59.22 1.1.147.844-.134.875-.103.343.33-.32.26-.585.662-.585.89 0 .52-1.594.17-2.358-.516-.286-.257-.78-.47-1.094-.47-.475 0-.504-.114-.19-.705.21-.388.665-.78 1.01-.872.35-.09.634-.305.634-.48 0-.167-.127-.233-.283-.136-.155.095-.453-.195-.66-.647-.203-.456-.503-.82-.67-.82-.502 0-2.04 1.35-1.957 1.72.042.194-.137.43-.393.524-.325.12-.403.002-.26-.37.116-.3.062-.545-.113-.545s-.32-.25-.32-.556c0-.51-.045-.51-.61 0-.335.305-.77.554-.963.554-.195 0-1.09.66-1.985 1.46-1.337 1.2-1.798 1.43-2.567 1.288-.744-.143-1.103.016-1.754.783l-.82.962.587-1.074c.322-.586 1.87-2.788 3.435-4.888C40.1 25.722 61.657 12.08 85.8 7.267c9.414-1.88 20.723-2.66 26.326-1.82 1.616.24 2.596.492 2.173.563-.428.068-.857.337-.957.598-.107.278-.64.47-1.292.47-1.217 0-1.835.526-.902.77.487.13.47.16-.096.19-.374.024-.86.217-1.077.435-.27.27-2.502.422-7.14.483-8.038.11-8.595.17-10.93 1.204-.997.44-2.586.89-3.534 1.003-.95.112-2 .352-2.333.535-.333.18-1.05.425-1.59.542-.728.154-.86.283-.513.496.254.156.583.217.728.127.142-.088.786-.017 1.428.16.7.194 1.24.2 1.355.02.104-.17 0-.306-.23-.306-.264 0-.303-.115-.107-.305.57-.55 2.643-.52 3.446.042.725.508.735.56.154.857-.62.32-2.915.87-5.156 1.23-.908.15-1.267.39-1.41.963-.18.72-.36.772-2.614.772-2.595 0-5.66.708-5.476 1.267.15.457 1.83.63 2.33.24 1.356-1.075 4.748-1.288 4.36-.27-.2.52.744.997 1.04.523.106-.176.482-.32.84-.32.37 0 .648-.23.648-.535 0-.354.18-.47.525-.334.29.11.75.203 1.022.203.43 0 .43.062-.016.507-.81.81-.343 1.37 1.017 1.21.833-.097 1.13-.023.972.235s.25.375 1.3.375 1.585.156 1.72.496c.104.275.4.5.653.5.414 0 .604.41.38.82-.046.083.212.366.57.627.563.41.6.598.262 1.338-.217.47-.762.95-1.208 1.062l-.814.204.718.72c.4.397 1.048.748 1.446.785.397.033 1.19.3 1.757.592.814.42 1.01.715.92 1.38-.06.463-.326.98-.59 1.144-.36.233-.374.306-.044.31.24 0 .34.158.23.34-.114.182.027.333.31.333.29 0 .52.224.52.497 0 .272-.204.5-.46.5-.694 0-3.536 1.322-3.536 1.647 0 .16-.336.222-.75.15-.412-.077-.56-.055-.333.055.306.145.32.365.057.863-.197.365-.446.58-.55.475-.105-.103-.36.042-.564.325-.208.28-.645.552-.977.6-.707.104-1.217.812-.995 1.385.135.352-.553.684-1.72.833-.18.025-.54.218-.79.428-.255.208-.67.383-.915.386-.516.006-3.12 2.425-3.12 2.9 0 .17-.32.21-.71.09-.45-.147-.63-.1-.487.12.173.284-2.434.968-3.127.82-2.88-.61-4.035-.65-6.91-.257-1.178.164-1.9.115-2.218-.15-.366-.302-.742-.277-1.667.108-.656.274-1.195.636-1.195.8 0 .16-.466.312-1.038.33-.57.016-2.05.563-3.293 1.212-2.67 1.403-3.168 1.478-2.833.438.132-.413.27-1.226.315-1.81.095-1.354 1.206-2.797 4.275-5.54 2.87-2.57 6.902-4.67 6.902-3.595 0 .156.377.215.84.127.785-.15.8-.193.25-.62-.564-.437-.56-.483.076-.98.368-.29 1.076-.467 1.577-.394.67.095.967-.04 1.108-.486.116-.366 1.344-1.15 3-1.926 3.22-1.5 4.513-2.594 4.25-3.603-.145-.537.106-.823 1.18-1.372.745-.38 1.47-.67 1.612-.637.144.033.518-.055.833-.194.37-.16 1.002.014 1.78.492.975.6 1.266.658 1.488.297.613-.99-2.026-1.668-7.588-1.94-.99-.05-.948-.752.114-2.012.64-.763.73-1.02.35-1.02-.277 0-.602.156-.724.35-.142.23-.506.16-1.072-.21-.754-.492-1.125-.514-3.07-.165-1.217.218-2.657.687-3.192 1.04-.54.357-1.248.646-1.58.65-.332 0-.51.15-.398.334.344.553 1.504.37 2.598-.406 1.135-.81 5.01-1.277 5.608-.68.605.606-1.292 2.85-3.247 3.844-1.003.51-1.912 1.147-2.014 1.414s-.397.486-.653.486c-.253 0-.47.186-.473.415-.01.453-2.664 1.913-3.48 1.913-.275 0-.915.48-1.417 1.064-2.123 2.463-2.323 2.595-3.785 2.54l-1.4-.055 1.05-.934c.577-.517 1.05-1.02 1.05-1.122 0-.35-1.44.59-2.484 1.626-.577.57-1.614 1.21-2.303 1.416-.867.26-1.143.264-.896.02.62-.618.39-1.02-.25-.444-1.02.92-1.14.62-.328-.824.422-.757 1.394-1.887 2.156-2.515.763-.626 1.542-1.58 1.73-2.12.2-.565.713-1.122 1.216-1.312 1.123-.426 1.16-.42 1.16.18 0 .695.994 1.027 1.36.453.21-.33.295-.344.3-.046.002.227.168.415.374.415.21 0 .292-.296.192-.685-.13-.493.024-.762.56-.964.402-.153.934-.52 1.18-.812.245-.29.8-.534 1.234-.534.437 0 .79-.134.79-.298 0-.17-.516-.173-1.25-.005-.683.163-1.874.207-2.636.097-1.196-.165-1.606-.045-2.937.873-.85.583-1.647.962-1.77.837-.126-.125.045-.422.375-.667.408-.298.48-.515.23-.67-.594-.367.653-1.55 1.386-1.314.9.285 1.38-.133.808-.7-.265-.266-.62-.48-.794-.48-.176 0-.503-.226-.73-.5-.522-.63-2.24-.636-3.33-.014-.46.26-1.343.708-1.965.996-.626.285-1.766 1.083-2.54 1.767-.776.68-2.036 1.745-2.805 2.362s-1.558 1.47-1.75 1.892-.81.96-1.372 1.193c-.562.232-1.477.82-2.036 1.304-.562.486-1.448 1.106-1.975 1.382-.767.392-.852.534-.417.697.298.117.544.063.544-.115 0-.173.154-.322.35-.322s.903-.374 1.58-.835c.68-.46 1.282-.68 1.343-.498.298.89 3.53-.16 4.802-1.57.32-.354.92-.615 1.33-.58.414.038 1.05-.094 1.415-.292.778-.42 2.88-1.2 3.256-1.208.142-.002.03.347-.25.774-.28.426-.43.855-.33.956.097.098-.353.64-.997 1.21-.65.567-1.18 1.185-1.18 1.37 0 .184-.56.57-1.244.86-1.318.55-2.75 1.72-2.75 2.253 0 .177.668.24 1.57.14 1.34-.153 1.488-.117.99.25-.574.42-3.215 2.792-5.58 5.02-.658.614-1.39 1.72-1.634 2.45-.242.733-.55 1.263-.68 1.182-.138-.083-.428.283-.648.815-.59 1.43-2.488 3.07-2.986 2.574-.3-.294-.343-.26-.187.157.155.392-.07.64-.81.895-.562.195-1.02.588-1.02.872 0 .286-.18.515-.4.515-.293 0-.3.097-.022.375.473.474.175 1.238-.858 2.197-.45.415-.696.757-.552.757s-.142.373-.635.832c-.986.896-1.51 1.052-1.413.403zm-3.638-14.06c.16-.668.125-.887-.098-.668-.18.182-.44.782-.566 1.33-.16.668-.122.888.098.668.183-.183.44-.78.566-1.33zm-.888-.687c.044-.49-.066-.764-.26-.647-.387.242-.45 1.5-.07 1.5.144-.004.293-.385.33-.853zm3.57-3.14c.71-.78.128-.91-.64-.144-.59.584-.655.806-.243.806.16 0 .554-.3.886-.664zm2-2.998c.262-.422-.177-.422-.832 0-.432.276-.422.325.063.33.31.002.655-.145.77-.33zm3.24-2.068c.575-.535.875-1.072.73-1.3-.16-.26-.1-.306.184-.13.286.173.376.11.273-.2-.196-.59-.674-.498-1.1.217-.18.31-.74.984-1.245 1.497-.503.517-.916 1.118-.916 1.337 0 .432.33.21 2.076-1.42zm29.39-7.248c-.115-.185-.356-.334-.542-.334-.18 0-.24.15-.127.332s.356.333.54.333.242-.15.13-.333zm13.762-3.99c.48.007.486.05.054.33-.435.28-.43.324.046.326.293.005.715-.205.933-.466.31-.374.26-.51-.25-.674-.876-.278-1.733.105-1.7.764.015.348.086.392.19.13.097-.23.42-.412.726-.41zm-9.848-3c.28 0 .596-.224.7-.497.26-.67-.07-.627-1.386.17-.65.397-1 .824-.864 1.048.164.26.36.21.635-.17.224-.302.634-.55.915-.55zm3.742-2.992c.115-.184.06-.335-.127-.335-.183 0-.425.15-.54.334-.115.18-.054.33.13.33s.425-.15.537-.332zm2.832-2.665c0-.183-.225-.334-.498-.334s-.498.15-.498.333c0 .18.225.332.498.332s.498-.15.498-.332zm-7.988 39.09c0-.28-.227-.596-.5-.7-.647-.25-.647-.785 0-.785.273 0 .5-.227.5-.498 0-.276-.16-.5-.356-.5-.193 0-.26-.142-.154-.317s.442-.225.742-.11c.427.164.493.076.313-.403-.26-.676.246-1.152 1.24-1.16.46-.005.573.166.446.66-.134.512-.01.668.544.67.394 0 1.293.156 1.986.352 1.165.325 1.26.44 1.167 1.41-.134 1.378-1.17 1.886-3.85 1.894-1.648-.003-2.078-.11-2.078-.513zm45.835-2.708c-.46-.457-.198-1.108.443-1.108.444 0 .667.22.667.666 0 .64-.65.898-1.11.44zm-18.158-9.34c-.208-.392-.376-.943-.376-1.23 0-.284-.15-.52-.334-.52-.39 0-.437-1.317-.06-1.908.15-.238.707-.353 1.325-.274.585.076 1.066.002 1.066-.156 0-.31 2.24-.195 2.566.132.326.32-.648 1.247-1.12 1.063-.615-.234-.566.464.083 1.177.62.687.383 1.275-.488 1.207-.415-.032-.564-.24-.46-.645.27-1.02-.38-.652-1.12.635-.678 1.18-.717 1.2-1.084.517zm-44.75-4.46c.224-.226.49-.326.592-.224s-.078.29-.41.415c-.47.184-.507.145-.183-.188zm69.006-.462c-.613-.735-.265-.82.422-.103.32.337.45.61.29.61-.163 0-.484-.227-.713-.507zm-14.874-.037c-.275-.112-.23-.334.166-.732.394-.398.677-.47.942-.23.21.19.303.475.205.636-.1.16.03.222.282.134.292-.1.424-.535.36-1.206-.105-1.016-.08-1.038.8-.703.658.25.978.242 1.147-.037.17-.276.3-.28.465-.015.127.203.06.37-.145.37s-.28.15-.166.333c.116.18.01.334-.23.337-.315.005-.3.093.064.327.407.264.363.325-.225.33-.395.002-.795-.183-.888-.413-.107-.26-.178-.213-.195.13-.036.8-1.44 1.2-2.583.737zm-60.896-3.41c.1-.16.52-.378.936-.483.728-.18.732-.168.11.293-.718.534-1.326.646-1.045.19zm8.516-3.37c.654-.42 1.096-.42.833 0-.114.182-.46.333-.77.33-.487-.005-.494-.05-.065-.33zm1.665-1.662c0-.18.23-.334.5-.334s.5.154.5.334-.226.334-.5.334-.5-.153-.5-.334zm29.726-5.86c.112-.11.398-.12.64-.026.26.105.186.186-.203.2-.352.017-.547-.063-.437-.173zm-2.232-.453c-.354-.124-.503-.302-.332-.395.442-.244 3.325-.354 3.09-.12-.407.408-2.143.733-2.758.516zm2.224-1.56c-.71-.285-.46-.83.333-.717.41.06.71.26.665.44-.1.404-.44.497-.998.278zm-4.744-.222c0-.105.34-.56.757-1.003.548-.586 1.236-.87 2.46-1 .94-.1 2.095-.28 2.573-.4.647-.163.87-.09.87.272 0 .662-.875 1.36-1.34 1.072-.204-.128-1.073-.123-1.927.01-1.24.194-1.423.296-.89.51.602.245.587.27-.167.296-.46.014-1.17.116-1.584.226-.416.11-.752.116-.752.013zm31.875-6.1c.225-.09.677-.096 1-.013.323.085.14.16-.41.166-.55.008-.817-.06-.59-.153z"/></svg>